<svg width="60" height="46" viewBox="0 0 60 46" fill="none" xmlns="http://www.w3.org/2000/svg">
<g clip-path="url(#clip0_145_564)">
<path opacity="0.3" d="M3 20.6206L13.5 14.9956L54 36.692L43.5 42.317L3 20.6206Z" fill="black"/>
<path d="M53.175 24.1562L53.55 24.3973C54.15 24.7991 54.675 25.442 54.975 26.1652C55.2 26.7277 55.5 27.2902 55.5 27.8527V28.7366C55.5 29.058 55.275 29.3795 55.05 29.5402C54.825 29.7009 54.6 29.5402 54.6 29.2991V27.933C54.6 27.7723 54.675 27.6116 54.675 27.5313C54.825 27.2902 54.975 26.9688 54.825 26.6473C54.525 25.7634 53.925 24.9598 53.25 24.558L53.025 24.3973C53.025 24.317 53.1 24.1562 53.175 24.1562Z" fill="#2D3134"/>
<path opacity="0.39" d="M53.175 24.1562L53.55 24.3973C54.15 24.7991 54.675 25.442 54.975 26.1652C55.2 26.7277 55.5 27.2902 55.5 27.8527V28.7366C55.5 29.058 55.275 29.3795 55.05 29.5402C54.825 29.7009 54.6 29.5402 54.6 29.2991V27.933C54.6 27.7723 54.675 27.6116 54.675 27.5313C54.825 27.2902 54.975 26.9688 54.825 26.6473C54.525 25.7634 53.925 24.9598 53.25 24.558L53.025 24.3973C53.025 24.317 53.1 24.1562 53.175 24.1562Z" fill="black"/>
<path d="M11.7 23.3527L13.65 22.3081V21.1831H11.7V23.3527Z" fill="#2D3134"/>
<path opacity="0.39" d="M11.7 23.3527L13.65 22.3081V21.1831H11.7V23.3527Z" fill="black"/>
<path d="M32.7 34.6027L34.65 33.5581V32.4331H32.7V34.6027Z" fill="#2D3134"/>
<path opacity="0.39" d="M32.7 34.6027L34.65 33.5581V32.4331H32.7V34.6027Z" fill="black"/>
<path d="M15.15 21.4245C14.625 21.1031 14.1 21.1031 13.725 21.2638L12.675 21.8263C12.3 21.987 12 22.4691 12 23.112C12 24.3173 12.975 25.8441 14.1 26.487C14.7 26.8084 15.225 26.8084 15.6 26.6477C15.6 26.6477 16.65 26.0852 16.725 26.0048C17.1 25.7638 17.25 25.362 17.25 24.7995C17.25 23.5138 16.275 21.987 15.15 21.4245Z" fill="#2D3134"/>
<path opacity="0.39" d="M15.6 26.5671C15.75 26.4867 16.65 26.0046 16.725 26.0046C17.1 25.7635 17.25 25.3617 17.25 24.7992C17.25 24.3171 17.1 23.7546 16.875 23.2725L15.825 23.835C16.05 24.3171 16.2 24.8796 16.2 25.3617C16.2 25.9242 15.975 26.4064 15.6 26.5671Z" fill="black"/>
<path d="M15.675 25.0405C15.675 26.0048 15 26.3262 14.1 25.8441C13.2 25.3619 12.525 24.2369 12.525 23.2726C12.525 22.3084 13.2 21.9869 14.1 22.4691C15 22.9512 15.675 24.0762 15.675 25.0405Z" fill="#A9ABB0"/>
<path d="M14.25 25.8438C13.35 25.3617 12.675 24.2367 12.675 23.2724C12.675 22.7902 12.825 22.4688 13.125 22.3081C12.75 22.3885 12.525 22.7902 12.525 23.2724C12.525 24.2367 13.2 25.3617 14.1 25.8438C14.55 26.0849 14.925 26.0849 15.225 25.9242C14.925 26.0849 14.625 26.0045 14.25 25.8438Z" fill="#808285"/>
<path d="M14.925 24.4777C14.925 24.8795 14.625 25.0402 14.25 24.7992C13.875 24.5581 13.575 24.1563 13.575 23.7545C13.575 23.3527 13.875 23.192 14.25 23.4331C14.625 23.6742 14.925 24.0759 14.925 24.4777Z" fill="#2D3134"/>
<path opacity="0.39" d="M14.925 24.4777C14.925 24.8795 14.625 25.0402 14.25 24.7992C13.875 24.5581 13.575 24.1563 13.575 23.7545C13.575 23.3527 13.875 23.192 14.25 23.4331C14.625 23.6742 14.925 24.0759 14.925 24.4777Z" fill="black"/>
<path d="M14.775 24.5583C14.775 24.9601 14.475 25.1208 14.1 24.8797C13.725 24.719 13.425 24.2369 13.425 23.8351C13.425 23.4333 13.725 23.2726 14.1 23.5137C14.475 23.6744 14.775 24.1565 14.775 24.5583Z" fill="#2D3134"/>
<path opacity="0.06" d="M16.2 25.3617C16.2 26.5671 15.225 27.1296 14.1 26.4867C12.975 25.8439 12 24.3171 12 23.1117C12 21.9064 12.975 21.3439 14.1 21.9867C15.225 22.5492 16.2 24.076 16.2 25.3617Z" fill="black"/>
<path d="M36.15 32.5939C35.625 32.2725 35.1 32.2725 34.725 32.4332L33.675 32.9957C33.3 33.1564 33 33.6386 33 34.2814C33 35.4868 33.975 37.0136 35.1 37.6564C35.7 37.9778 36.225 37.9778 36.6 37.8171C36.6 37.8171 37.65 37.2546 37.725 37.1743C38.1 36.9332 38.25 36.5314 38.25 35.9689C38.25 34.7636 37.275 33.2368 36.15 32.5939Z" fill="#2D3134"/>
<path opacity="0.39" d="M36.6 37.8171C36.75 37.7367 37.65 37.2546 37.725 37.2546C38.1 37.0135 38.25 36.6117 38.25 36.0492C38.25 35.5671 38.1 35.0046 37.875 34.5225L36.825 35.085C37.05 35.5671 37.2 36.1296 37.2 36.6117C37.2 37.1742 36.975 37.576 36.6 37.8171Z" fill="black"/>
<path d="M36.675 36.2905C36.675 37.2548 36 37.5762 35.1 37.0941C34.2 36.6119 33.525 35.4869 33.525 34.5226C33.525 33.5584 34.2 33.2369 35.1 33.7191C36 34.2012 36.675 35.3262 36.675 36.2905Z" fill="#A9ABB0"/>
<path d="M35.25 37.0137C34.35 36.5316 33.675 35.4066 33.675 34.4423C33.675 33.9602 33.825 33.6387 34.125 33.478C33.75 33.5584 33.525 33.9602 33.525 34.4423C33.525 35.4066 34.2 36.5316 35.1 37.0137C35.55 37.2548 35.925 37.2548 36.225 37.0941C35.925 37.2548 35.625 37.2548 35.25 37.0137Z" fill="#808285"/>
<path d="M35.85 35.7277C35.85 36.1295 35.55 36.2902 35.175 36.0492C34.8 35.8884 34.5 35.4063 34.5 35.0045C34.5 34.6027 34.8 34.442 35.175 34.6831C35.625 34.8438 35.85 35.3259 35.85 35.7277Z" fill="#2D3134"/>
<path opacity="0.39" d="M35.85 35.7277C35.85 36.1295 35.55 36.2902 35.175 36.0492C34.8 35.8884 34.5 35.4063 34.5 35.0045C34.5 34.6027 34.8 34.442 35.175 34.6831C35.625 34.8438 35.85 35.3259 35.85 35.7277Z" fill="black"/>
<path d="M35.775 35.8083C35.775 36.2101 35.475 36.3708 35.1 36.1297C34.725 35.969 34.425 35.4869 34.425 35.0851C34.425 34.6833 34.725 34.5226 35.1 34.7637C35.475 34.9244 35.775 35.4065 35.775 35.8083Z" fill="#2D3134"/>
<path opacity="0.06" d="M37.2 36.5316C37.2 37.7369 36.225 38.2994 35.1 37.6566C33.975 37.0137 33 35.5673 33 34.2816C33 32.9958 33.975 32.5137 35.1 33.1566C36.225 33.7994 37.2 35.3262 37.2 36.5316Z" fill="black"/>
<path d="M49.575 20.3796L12 0.209961L3 5.03139V17.085L4.95 18.1296L12.075 21.9064C12.3 21.585 12.75 21.3439 13.2 21.3439C13.575 21.3439 13.875 21.4242 14.25 21.6653C15.15 22.1475 15.975 23.1921 16.35 24.2367L18 25.1207V26.7278L24 29.9421V28.335L33 33.1564C33.225 32.7546 33.675 32.5939 34.125 32.5939C34.5 32.5939 34.8 32.6742 35.175 32.9153C36.15 33.3975 36.9 34.4421 37.275 35.4867L45 39.585L54 34.7635V28.0135C54 24.7992 52.275 21.826 49.575 20.3796Z" fill="#CC291F"/>
<path d="M45 41.1922L54 36.3708V34.7637L45 39.5851V41.1922Z" fill="#262626"/>
<path opacity="0.3" d="M3.59998 13.9508V8.00439L17.4 15.3973V21.3437L3.59998 13.9508Z" fill="black"/>
<path d="M17.25 15.4777L3.75 8.24561V13.8706L17.25 21.1027V15.4777Z" fill="#656565"/>
<path opacity="0.2" d="M17.25 15.4777L3.75 8.24561L17.25 18.6117V15.4777Z" fill="black"/>
<path opacity="0.3" d="M3.9 13.7902V8.32596L3.75 8.24561V13.8706L17.25 21.1027V20.942L3.9 13.7902Z" fill="black"/>
<path opacity="0.3" d="M18 14.6743V26.7279L21 28.335V16.2815L18 14.6743ZM20.85 28.094L18.15 26.6475V14.9154L20.85 16.3618V28.094Z" fill="black"/>
<path opacity="0.3" d="M21 16.2812V28.3348L24 29.942V17.8884L21 16.2812ZM23.85 29.7009L21.15 28.2545V16.5223L23.85 17.9688V29.7009Z" fill="black"/>
<path opacity="0.3" d="M43.35 34.6029V29.3797L43.65 29.2993C44.175 30.4243 44.4 31.6297 44.4 32.835V35.1654L43.35 34.6029Z" fill="black"/>
<path d="M43.5 29.3794V34.5223L44.25 34.924V32.8348C44.25 31.6294 43.95 30.424 43.5 29.3794Z" fill="#656565"/>
<path opacity="0.3" d="M39.75 26.3262V36.7726L42.75 38.3797V27.9333L39.75 26.3262ZM42.6 38.1387L39.9 36.6922V26.5672L42.6 28.0137V38.1387Z" fill="black"/>
<path opacity="0.3" d="M21.6 23.1922V18.0493L23.4 19.0136V24.1565L21.6 23.1922Z" fill="black"/>
<path d="M21.75 18.2905L23.25 19.0941V23.9155L21.75 23.112V18.2905Z" fill="#656565"/>
<path opacity="0.3" d="M40.35 33.2369V28.0137L42.15 28.978V34.2012L40.35 33.2369Z" fill="black"/>
<path d="M40.5 28.335L42 29.1385V33.96L40.5 33.1564V28.335Z" fill="#656565"/>
<path opacity="0.3" d="M40.65 33.076V28.4153L40.5 28.335V33.1564L42 33.96V33.7992L40.65 33.076Z" fill="black"/>
<path opacity="0.3" d="M18.6 21.5848V16.4419L20.4 17.4062V22.549L18.6 21.5848Z" fill="black"/>
<path d="M18.75 16.6831L20.25 17.4867V22.3081L18.75 21.5045V16.6831Z" fill="#656565"/>
<path opacity="0.3" d="M21.9 23.0316V18.3709L21.75 18.2905V23.112L23.25 23.9155V23.7548L21.9 23.0316Z" fill="black"/>
<path opacity="0.3" d="M18.9 21.4242V16.7635L18.75 16.6831V21.5045L20.25 22.3081V22.1474L18.9 21.4242Z" fill="black"/>
<path opacity="0.3" d="M24.6 25.2008V19.2544L39.15 27.049V32.9955L24.6 25.2008Z" fill="black"/>
<path d="M39 27.1295L24.75 19.4956V25.1206L39 32.7545V27.1295Z" fill="#656565"/>
<path opacity="0.2" d="M39 27.1295L24.75 19.4956L39 29.8617V27.1295Z" fill="black"/>
<path opacity="0.3" d="M24.9 25.0402V19.576L24.75 19.4956V25.1206L39 32.7545V32.5938L24.9 25.0402Z" fill="black"/>
<path d="M46.5 37.9779L45 38.7815V37.9779L46.5 37.1743V37.9779Z" fill="#999999"/>
<path d="M44.25 38.3797L45 38.7815V37.978L44.25 37.5762V38.3797Z" fill="#FF9900"/>
<path d="M54 33.9598L52.5 34.7634V33.9598L54 33.1562V33.9598Z" fill="#999999"/>
<path d="M48 38.1383V38.9419L51.75 36.933V36.1294L48 38.1383Z" fill="#999999"/>
<path opacity="0.3" d="M45.6 32.835C45.6 30.6654 44.925 28.5761 43.65 26.969L43.5 26.8082L51.375 22.5493L51.45 22.6297C52.725 24.0761 53.4 26.0047 53.4 28.0136V31.2279L45.6 35.4065V32.835Z" fill="black"/>
<path d="M45.75 35.1655L53.25 31.1477V28.0137C53.25 26.0852 52.575 24.1566 51.375 22.7905L43.8 26.8887C45.075 28.5762 45.825 30.6655 45.825 32.9155L45.75 35.1655Z" fill="#656565"/>
<path opacity="0.1" d="M42 18.5315L37.5 20.9422L30 16.9244L34.5 14.5137L42 18.5315Z" fill="white"/>
<path opacity="0.06" d="M37.5 21.1029V20.9422L30 16.9243V17.085L37.5 21.1029Z" fill="black"/>
<path opacity="0.39" d="M37.5 21.1027V20.942L42 18.5312V18.692L37.5 21.1027Z" fill="black"/>
<path opacity="0.1" d="M21 7.28153L16.5 9.69224L9 5.67439L13.5 3.26367L21 7.28153Z" fill="white"/>
<path opacity="0.06" d="M16.5 9.85289V9.69217L9 5.67432V5.83503L16.5 9.85289Z" fill="black"/>
<path opacity="0.39" d="M16.5 9.85268V9.69196L21 7.28125V7.44196L16.5 9.85268Z" fill="black"/>
<path opacity="0.3" d="M45 37.3352L54 32.5137V32.353L45 37.1745V37.3352Z" fill="black"/>
<path opacity="0.6" d="M47.25 36.9332L51.75 34.5225V34.3618L47.25 36.7725V36.9332Z" fill="black"/>
<path opacity="0.6" d="M47.25 37.2545L51.75 34.8438V34.6831L47.25 37.0938V37.2545Z" fill="black"/>
<path opacity="0.6" d="M47.25 37.5758L51.75 35.1651V35.0044L47.25 37.4151V37.5758Z" fill="black"/>
<path opacity="0.6" d="M47.25 37.8976L51.75 35.4869V35.3262L47.25 37.7369V37.8976Z" fill="black"/>
<path opacity="0.15" d="M45 37.4958L54 32.6744V32.5137L45 37.3351V37.4958Z" fill="white"/>
<path opacity="0.3" d="M45 37.3348L42.75 36.1295V35.9688L45 37.1741V37.3348Z" fill="black"/>
<path opacity="0.15" d="M45 37.4955L42.75 36.2901V36.1294L45 37.3348V37.4955Z" fill="white"/>
<path opacity="0.3" d="M39.75 34.5225L24 26.085V25.9243L39.75 34.3618V34.5225Z" fill="black"/>
<path opacity="0.15" d="M39.75 34.6832L24 26.2457V26.085L39.75 34.5225V34.6832Z" fill="white"/>
<path opacity="0.3" d="M18 22.8707L3 14.835V14.6743L18 22.71V22.8707Z" fill="black"/>
<path opacity="0.15" d="M18 23.0314L3 14.9957V14.835L18 22.8707V23.0314Z" fill="white"/>
<path d="M11.7 23.1117C11.7 22.6296 11.85 22.2278 12.075 21.9867L3 17.085V18.6921L11.7 23.3528V23.1117Z" fill="#262626"/>
<path d="M16.275 24.2368C16.425 24.6386 16.5 24.96 16.5 25.3618C16.5 25.5225 16.5 25.7636 16.425 25.9243L18 26.7279V25.1207L16.275 24.2368Z" fill="#262626"/>
<path d="M32.7 34.2814C32.7 33.7992 32.85 33.3975 33 33.1564L24 28.335V29.9421L32.7 34.6028V34.2814Z" fill="#262626"/>
<path d="M37.35 35.4868C37.5 35.8886 37.5 36.21 37.5 36.6118C37.5 36.8529 37.5 37.0136 37.425 37.1743L45 41.1922V39.585L37.35 35.4868Z" fill="#262626"/>
<path opacity="0.5" d="M45.6 35.4065V34.6029L53.4 30.4243V31.2279L45.6 35.4065Z" fill="black"/>
<path opacity="0.5" d="M43.35 34.6029V33.7993L44.4 34.3618V35.1654L43.35 34.6029Z" fill="black"/>
<path d="M49.725 30.5852C49.65 30.5048 49.575 30.5048 49.5 30.5852L46.65 34.0405C46.575 34.1209 46.575 34.2012 46.65 34.2816C46.725 34.362 46.8 34.362 46.875 34.2816L47.625 33.3173V34.1209L47.85 33.9602V33.0762L49.725 30.7459C49.8 30.7459 49.8 30.6655 49.725 30.5852Z" fill="#2D3134"/>
<path d="M52.4249 28.9777C52.3499 28.8974 52.2749 28.8974 52.1999 28.9777L49.35 32.4331C49.275 32.5135 49.275 32.5938 49.35 32.6742C49.425 32.7545 49.4999 32.7545 49.5749 32.6742L50.2499 31.8706V32.7545L50.475 32.6742V31.5492L52.4249 29.1385C52.4999 29.1385 52.4999 29.0581 52.4249 28.9777Z" fill="#2D3134"/>
<path opacity="0.2" d="M49.05 23.835C49.425 25.1207 49.65 26.4065 49.65 27.7725C49.65 30.1029 49.05 32.2725 48.075 34.1207L49.425 33.3975C49.425 33.3975 52.125 30.6654 52.125 26.7279C52.125 25.2815 51.825 23.835 51.3 22.5493L49.05 23.835Z" fill="black"/>
<path opacity="0.2" d="M23.25 23.835V21.1028L21.75 19.335V21.3439L23.25 23.835Z" fill="black"/>
<path opacity="0.2" d="M20.25 20.1387V18.3709L18.75 16.603V17.6477L20.25 20.1387Z" fill="black"/>
<path opacity="0.2" d="M45.8051 37.7353C45.6744 37.9074 45.6465 38.115 45.7429 38.1991C45.8393 38.2831 46.0234 38.2118 46.1541 38.0397C46.2849 37.8675 46.3127 37.6599 46.2164 37.5758C46.12 37.4918 45.9359 37.5632 45.8051 37.7353Z" fill="black"/>
<path opacity="0.2" d="M45.3416 37.9447C45.2109 38.1169 45.183 38.3245 45.2794 38.4086C45.3758 38.4926 45.5599 38.4212 45.6906 38.2491C45.8214 38.077 45.8492 37.8694 45.7529 37.7853C45.6565 37.7013 45.4724 37.7726 45.3416 37.9447Z" fill="black"/>
<path opacity="0.2" d="M53.3802 33.7177C53.2494 33.8898 53.2216 34.0975 53.318 34.1815C53.4143 34.2656 53.5985 34.1942 53.7292 34.0221C53.86 33.85 53.8878 33.6423 53.7914 33.5583C53.6951 33.4742 53.5109 33.5456 53.3802 33.7177Z" fill="black"/>
<path opacity="0.2" d="M52.9166 33.9277C52.7858 34.0998 52.758 34.3074 52.8543 34.3915C52.9507 34.4755 53.1348 34.4041 53.2656 34.232C53.3963 34.0599 53.4242 33.8523 53.3278 33.7682C53.2314 33.6842 53.0473 33.7556 52.9166 33.9277Z" fill="black"/>
<path opacity="0.2" d="M46.5 37.978L45 38.7816V37.978H46.5Z" fill="white"/>
<path opacity="0.2" d="M54 33.9598L52.5 34.7634L54 33.1562V33.9598Z" fill="white"/>
<path d="M44.85 28.8169L45.225 28.9776C45.825 29.3794 46.35 30.0223 46.65 30.7455C46.875 31.308 47.175 31.8705 47.175 32.433V33.3169C47.175 33.6383 46.95 33.9598 46.725 34.1205C46.5 34.2812 46.275 34.1205 46.275 33.8794V32.5133C46.275 32.3526 46.35 32.1919 46.35 32.1115C46.5 31.8705 46.65 31.549 46.5 31.2276C46.2 30.3437 45.6 29.5401 44.925 29.1383L44.7 28.9776C44.625 28.9776 44.7 28.8169 44.85 28.8169Z" fill="#2D3134"/>
<path opacity="0.39" d="M54 28.0135C54 25.6027 53.1 23.3527 51.525 21.7456L42.525 26.567C44.1 28.1742 45 30.4242 45 32.8349V41.192L54 36.3706V28.0135Z" fill="black"/>
<path opacity="0.06" d="M40.575 25.1205L3 5.03125V18.692L11.7 23.3527V23.1116C11.7 22.6295 11.85 22.2277 12.075 21.9866C12.3 21.6652 12.75 21.4241 13.2 21.4241C13.575 21.4241 13.875 21.5045 14.25 21.7455C15.15 22.2277 15.975 23.2723 16.35 24.317C16.5 24.7188 16.575 25.0402 16.575 25.442C16.575 25.6027 16.575 25.8437 16.5 26.0045L32.775 34.683V34.3616C32.775 33.8795 32.925 33.4777 33.075 33.2366C33.3 32.8348 33.75 32.6741 34.2 32.6741C34.575 32.6741 34.875 32.7545 35.25 32.9955C36.225 33.4777 36.975 34.5223 37.35 35.567C37.5 35.9687 37.5 36.2902 37.5 36.692C37.5 36.933 37.5 37.0937 37.425 37.2545L45 41.192V32.8348C45 29.6205 43.275 26.6473 40.575 25.1205Z" fill="black"/>
</g>
<defs>
<clipPath id="clip0_145_564">
<rect width="60" height="45" fill="white" transform="translate(0 0.209961)"/>
</clipPath>
</defs>
</svg>
